# xmcd
#
# Track frame offsets: 
#        150
#        14568
#        31667
#        45234
#        58006
#        77368
#        90146
#        109796
#        122489
#        133852
#
# Disc length: 2007 seconds
#
# Revision: 0
# Processed by: cddbd v1.5.2PL0 Copyright (c) Steve Scherf et al.
# Submitted via: ExactAudioCopy v0.95b4
#
DISCID=6a07d50a
DTITLE=Fat Freddy's Cat - Just A Song For What It's Worth
DYEAR=2008
DGENRE=Acoustic
TTITLE0=GetBack
TTITLE1=FlyLikeABird
TTITLE2=TheRiver
TTITLE3=ICanHelp
TTITLE4=JustASong
TTITLE5=TheLetter
TTITLE6=ThreeDegrees
TTITLE7=IveJustSeen
TTITLE8=IHateIt
TTITLE9=GraveyardShift
EXTD=
EXTT0=
EXTT1=
EXTT2=
EXTT3=
EXTT4=
EXTT5=
EXTT6=
EXTT7=
EXTT8=
EXTT9=
PLAYORDER=
